<svg width="20" height="21" viewBox="0 0 20 21" fill="none" xmlns="http://www.w3.org/2000/svg">
<path d="M18.9757 13.8846C18.1619 12.4849 17.7298 10.4758 17.7298 8.07861C17.7298 5.99003 16.9001 3.987 15.4232 2.51015C13.9464 1.0333 11.9433 0.203613 9.85476 0.203613C7.76618 0.203613 5.76315 1.0333 4.2863 2.51015C2.80945 3.987 1.97976 5.99003 1.97976 8.07861C1.97976 10.4767 1.54945 12.4849 0.7357 13.8846C0.569651 14.17 0.481632 14.4942 0.48048 14.8245C0.479328 15.1547 0.565084 15.4795 0.729137 15.7661C0.892153 16.0529 1.12876 16.291 1.41453 16.4558C1.7003 16.6206 2.02488 16.7062 2.35476 16.7036H5.74664C5.83966 17.7289 6.31271 18.6823 7.07285 19.3766C7.83299 20.0709 8.82527 20.4559 9.85476 20.4559C10.8843 20.4559 11.8765 20.0709 12.6367 19.3766C13.3968 18.6823 13.8699 17.7289 13.9629 16.7036H17.3548C17.6842 16.7057 18.0082 16.6199 18.2934 16.4551C18.5786 16.2903 18.8148 16.0525 18.9776 15.7661C19.1423 15.4799 19.2289 15.1553 19.2286 14.8251C19.2282 14.4948 19.141 14.1705 18.9757 13.8846ZM9.85476 18.2036C9.42252 18.2037 9.00352 18.0544 8.66867 17.7811C8.33383 17.5078 8.10371 17.1271 8.01726 16.7036H11.6923C11.6058 17.1271 11.3757 17.5078 11.0409 17.7811C10.706 18.0544 10.287 18.2037 9.85476 18.2036ZM2.97914 14.4536C3.80882 12.7661 4.22976 10.623 4.22976 8.07861C4.22976 6.58677 4.82239 5.15603 5.87729 4.10114C6.93218 3.04625 8.36292 2.45361 9.85476 2.45361C11.3466 2.45361 12.7773 3.04625 13.8322 4.10114C14.8871 5.15603 15.4798 6.58677 15.4798 8.07861C15.4798 10.6221 15.8998 12.7661 16.7294 14.4536H2.97914Z" fill="black"/>
</svg>
