<svg width="19" height="22" viewBox="0 0 19 22" fill="none" xmlns="http://www.w3.org/2000/svg">
<path d="M17.1016 7.45361H14.4766V5.57861C14.4766 4.28568 13.9629 3.04571 13.0487 2.13147C12.1345 1.21723 10.8945 0.703613 9.60156 0.703613C8.30863 0.703613 7.06866 1.21723 6.15442 2.13147C5.24018 3.04571 4.72656 4.28568 4.72656 5.57861V7.45361H2.10156C1.60428 7.45361 1.12737 7.65116 0.775737 8.00279C0.424107 8.35442 0.226563 8.83133 0.226562 9.32861V19.8286C0.226563 20.3259 0.424107 20.8028 0.775737 21.1544C1.12737 21.5061 1.60428 21.7036 2.10156 21.7036H17.1016C17.5988 21.7036 18.0758 21.5061 18.4274 21.1544C18.779 20.8028 18.9766 20.3259 18.9766 19.8286V9.32861C18.9766 8.83133 18.779 8.35442 18.4274 8.00279C18.0758 7.65116 17.5988 7.45361 17.1016 7.45361ZM6.97656 5.57861C6.97656 4.88242 7.25312 4.21474 7.74541 3.72246C8.23769 3.23018 8.90537 2.95361 9.60156 2.95361C10.2978 2.95361 10.9654 3.23018 11.4577 3.72246C11.95 4.21474 12.2266 4.88242 12.2266 5.57861V7.45361H6.97656V5.57861ZM16.7266 19.4536H2.47656V9.70361H16.7266V19.4536ZM11.1016 14.5786C11.1016 14.8753 11.0136 15.1653 10.8488 15.412C10.6839 15.6586 10.4497 15.8509 10.1756 15.9644C9.9015 16.078 9.5999 16.1077 9.30893 16.0498C9.01796 15.9919 8.75068 15.8491 8.5409 15.6393C8.33112 15.4295 8.18826 15.1622 8.13038 14.8712C8.07251 14.5803 8.10221 14.2787 8.21574 14.0046C8.32927 13.7305 8.52153 13.4962 8.76821 13.3314C9.01488 13.1666 9.30489 13.0786 9.60156 13.0786C9.99939 13.0786 10.3809 13.2366 10.6622 13.518C10.9435 13.7993 11.1016 14.1808 11.1016 14.5786Z" fill="black"/>
</svg>
