<svg width="36" height="35" viewBox="0 0 36 35" fill="none" xmlns="http://www.w3.org/2000/svg">
<path d="M30.7964 3.12109H5.14295C4.72249 3.12109 4.31926 3.28812 4.02195 3.58543C3.72464 3.88273 3.55762 4.28597 3.55762 4.70642V30.3599C3.55762 30.7804 3.72464 31.1836 4.02195 31.4809C4.31926 31.7782 4.72249 31.9452 5.14295 31.9452H18.9497V20.7759H15.2026V16.4523H18.9497V13.2095C18.8721 12.4482 18.962 11.6792 19.213 10.9563C19.4641 10.2334 19.8703 9.57417 20.4031 9.02487C20.9359 8.47558 21.5825 8.04951 22.2974 7.77654C23.0123 7.50357 23.7783 7.39031 24.5416 7.44472C25.6633 7.43781 26.7845 7.49556 27.8996 7.61766V11.5089H25.6081C23.7922 11.5089 23.4463 12.3736 23.4463 13.6275V16.409H27.7699L27.2078 20.7327H23.4463V31.9452H30.7964C31.0046 31.9452 31.2108 31.9042 31.4031 31.8246C31.5955 31.7449 31.7702 31.6281 31.9174 31.4809C32.0646 31.3337 32.1814 31.1589 32.2611 30.9666C32.3408 30.7743 32.3818 30.5681 32.3818 30.3599V4.70642C32.3818 4.49823 32.3408 4.29208 32.2611 4.09974C32.1814 3.9074 32.0646 3.73264 31.9174 3.58543C31.7702 3.43821 31.5955 3.32144 31.4031 3.24177C31.2108 3.1621 31.0046 3.12109 30.7964 3.12109Z" fill="#FDFDFD"/>
</svg>
