<svg width="23" height="23" viewBox="0 0 23 23" fill="none" xmlns="http://www.w3.org/2000/svg">
<g clip-path="url(#clip0_2012_2563)">
<path fill-rule="evenodd" clip-rule="evenodd" d="M18.1473 1.21224C18.1138 1.07715 18.045 0.95338 17.9479 0.853602C17.8509 0.753825 17.729 0.68162 17.5949 0.644374C17.4608 0.607129 17.3192 0.606179 17.1846 0.641624C17.05 0.677068 16.9272 0.747634 16.8288 0.846102L13.686 3.98896C13.5901 4.08501 13.5208 4.20425 13.4847 4.33505C13.4487 4.46586 13.4471 4.60378 13.4801 4.73539L14.0458 7.00453C14.0384 7.01176 14.0311 7.0191 14.0238 7.02653L10.2666 10.7838C10.0584 11.0072 9.94504 11.3027 9.95043 11.6081C9.95582 11.9134 10.0795 12.2047 10.2954 12.4206C10.5114 12.6366 10.8027 12.7603 11.108 12.7657C11.4134 12.771 11.7089 12.6577 11.9323 12.4495L15.6927 8.69382C15.7001 8.68605 15.7075 8.6782 15.7147 8.67024L17.9823 9.23753C18.1139 9.27059 18.2518 9.26901 18.3826 9.23293C18.5134 9.19686 18.6327 9.12752 18.7287 9.03167L21.8716 5.88882C21.9704 5.79048 22.0414 5.66759 22.077 5.53278C22.1127 5.39797 22.1119 5.25609 22.0746 5.12171C22.0373 4.98733 21.965 4.86529 21.8649 4.76813C21.7649 4.67096 21.6408 4.60217 21.5054 4.56882L18.8198 3.89939L18.1473 1.21224ZM11.5976 1.80939C11.6192 2.12111 11.5161 2.42865 11.311 2.66439C11.1059 2.90013 10.8156 3.04478 10.5038 3.06653C8.86201 3.18031 7.28736 3.76304 5.96698 4.74547C4.6466 5.72789 3.63602 7.06872 3.0553 8.60864C2.47458 10.1485 2.34814 11.8228 2.69101 13.4325C3.03389 15.0421 3.83165 16.5195 4.98951 17.6891C6.14738 18.8587 7.61666 19.6713 9.22279 20.0303C10.8289 20.3894 12.5044 20.2798 14.05 19.7146C15.5957 19.1494 16.9467 18.1524 17.9423 16.842C18.938 15.5316 19.5365 13.9628 19.6668 12.3222C19.6916 12.0105 19.8393 11.7214 20.0772 11.5185C20.3152 11.3156 20.624 11.2155 20.9358 11.2403C21.2475 11.2651 21.5366 11.4127 21.7395 11.6507C21.9424 11.8887 22.0425 12.1975 22.0177 12.5092C21.8514 14.5996 21.0886 16.5983 19.8198 18.2678C18.551 19.9373 16.8296 21.2076 14.8601 21.9276C12.8907 22.6476 10.7559 22.7871 8.70951 22.3296C6.66309 21.872 4.79102 20.8367 3.31572 19.3465C1.84041 17.8563 0.823895 15.9739 0.386929 13.923C-0.0500364 11.8721 0.110919 9.73885 0.850673 7.77672C1.59043 5.81459 2.87788 4.10606 4.56008 2.8541C6.24228 1.60215 8.24851 0.859399 10.3404 0.714102C10.6521 0.692512 10.9597 0.795597 11.1954 1.00069C11.4312 1.20579 11.5758 1.49767 11.5976 1.80939ZM10.5416 6.99353C10.598 7.13767 10.6256 7.29153 10.6225 7.44631C10.6195 7.60108 10.5861 7.75376 10.5241 7.8956C10.462 8.03744 10.3727 8.16567 10.2611 8.27297C10.1495 8.38028 10.0179 8.46454 9.87371 8.52096C9.35834 8.72311 8.90148 9.05051 8.54442 9.47355C8.18735 9.8966 7.94134 10.402 7.82861 10.9439C7.71588 11.4859 7.74 12.0475 7.89877 12.5778C8.05755 13.1081 8.34598 13.5906 8.738 13.9814C9.13001 14.3723 9.61326 14.6593 10.1441 14.8166C10.6748 14.9738 11.2365 14.9963 11.7781 14.882C12.3198 14.7677 12.8244 14.5202 13.2464 14.1619C13.6684 13.8036 13.9945 13.3458 14.1951 12.8298C14.2513 12.6856 14.3353 12.5538 14.4423 12.442C14.5494 12.3302 14.6774 12.2406 14.8191 12.1783C14.9608 12.116 15.1134 12.0822 15.2681 12.0789C15.4229 12.0755 15.5767 12.1027 15.721 12.1588C15.8652 12.2149 15.997 12.2989 16.1088 12.406C16.2206 12.5131 16.3102 12.6411 16.3725 12.7828C16.4348 12.9245 16.4686 13.077 16.4719 13.2318C16.4753 13.3865 16.4481 13.5404 16.392 13.6847C16.0493 14.5657 15.4924 15.3475 14.7716 15.9593C14.0509 16.5711 13.189 16.9936 12.264 17.1886C11.3389 17.3837 10.3799 17.3451 9.47347 17.0764C8.56708 16.8076 7.74196 16.3173 7.07269 15.6496C6.40342 14.9819 5.91111 14.1579 5.64026 13.2521C5.36942 12.3464 5.32859 11.3874 5.52146 10.4619C5.71432 9.5364 6.13481 8.67356 6.7449 7.95138C7.35498 7.22921 8.13544 6.67046 9.0157 6.32567C9.30663 6.21212 9.63072 6.21867 9.91682 6.34389C10.2029 6.46911 10.4276 6.70276 10.5416 6.99353Z" fill="#0056FD"/>
</g>
<defs>
<clipPath id="clip0_2012_2563">
<rect width="22" height="22" fill="white" transform="translate(0.0996094 0.616699)"/>
</clipPath>
</defs>
</svg>
