<svg width="23" height="23" viewBox="0 0 23 23" fill="none" xmlns="http://www.w3.org/2000/svg">
<path d="M20.5 7.57215H2.5C2.01392 7.57259 1.84371 7.2569 1.5 7.57215C1.15629 7.8874 0.500485 8.11995 0.5 8.56578V20.4894C0.500485 20.9352 1.15629 22.1614 1.5 22.4767C1.84371 22.7919 2.01392 22.4762 2.5 22.4767H20.5C20.9861 22.4762 21.1563 22.7919 21.5 22.4767C21.8437 22.1614 22.4995 20.9352 22.5 20.4894V8.56578C22.4995 8.11995 21.8437 7.8874 21.5 7.57215C21.1563 7.2569 20.9861 7.57259 20.5 7.57215ZM8.5 18.5021V11.5467L15.5 14.5276L8.5 18.5021ZM2.5 3.59761H20.5V5.58488H2.5V3.59761ZM4.5 0.616699H18.5V2.60397H4.5V0.616699Z" fill="#0056FD"/>
</svg>
