<svg width="23" height="23" viewBox="0 0 23 23" fill="none" xmlns="http://www.w3.org/2000/svg">
<path d="M18.9004 11.6167C18.4363 11.6167 18.2286 10.9449 17.9004 10.6167C17.5722 10.2885 16.9004 10.0808 16.9004 9.6167C16.9004 9.15257 17.5722 8.94489 17.9004 8.6167C18.2286 8.28851 18.4363 7.6167 18.9004 7.6167C19.3645 7.6167 19.5722 8.28851 19.9004 8.6167C20.2286 8.94489 20.9004 9.15257 20.9004 9.6167C20.9004 10.0808 20.2286 10.2885 19.9004 10.6167C19.5722 10.9449 19.3645 11.6167 18.9004 11.6167ZM14.9004 6.6167C14.4363 6.6167 14.2286 5.94489 13.9004 5.6167C13.5722 5.28851 13.9004 5.08083 13.9004 4.6167C13.9004 4.15257 13.5722 3.94489 13.9004 3.6167C14.2286 3.28851 14.4363 2.6167 14.9004 2.6167C15.3645 2.6167 16.5722 3.28851 16.9004 3.6167C17.2286 3.94489 16.9004 4.15257 16.9004 4.6167C16.9004 5.08083 17.2286 5.28851 16.9004 5.6167C16.5722 5.94489 15.3645 6.6167 14.9004 6.6167ZM9.90039 6.6167C9.43626 6.6167 8.22858 5.94489 7.90039 5.6167C7.5722 5.28851 7.90039 5.08083 7.90039 4.6167C7.90039 4.15257 7.5722 3.94489 7.90039 3.6167C8.22858 3.28851 9.43626 2.6167 9.90039 2.6167C10.3645 2.6167 10.5722 3.28851 10.9004 3.6167C11.2286 3.94489 10.9004 4.15257 10.9004 4.6167C10.9004 5.08083 11.2286 5.28851 10.9004 5.6167C10.5722 5.94489 10.3645 6.6167 9.90039 6.6167ZM5.90039 11.6167C5.43626 11.6167 5.22858 10.9449 4.90039 10.6167C4.5722 10.2885 3.90039 10.0808 3.90039 9.6167C3.90039 9.15257 4.5722 8.94489 4.90039 8.6167C5.22858 8.28851 5.43626 7.6167 5.90039 7.6167C6.36452 7.6167 6.5722 8.28851 6.90039 8.6167C7.22858 8.94489 7.90039 9.15257 7.90039 9.6167C7.90039 10.0808 7.22858 10.2885 6.90039 10.6167C6.5722 10.9449 6.36452 11.6167 5.90039 11.6167ZM12.9004 0.616699C10.1156 0.616699 6.86952 1.64757 4.90039 3.6167C2.93126 5.58583 1.90039 8.83193 1.90039 11.6167C1.90039 14.4015 2.93126 16.6476 4.90039 18.6167C6.86952 20.5858 10.1156 21.6167 12.9004 21.6167C13.3645 21.6167 13.5722 20.9449 13.9004 20.6167C14.2286 20.2885 13.9004 20.0808 13.9004 19.6167C13.9004 19.1617 14.1804 18.92 13.9004 18.6167C13.6321 18.3017 12.9004 18.06 12.9004 17.6167C12.9004 17.1526 13.5722 16.9449 13.9004 16.6167C14.2286 16.2885 14.4363 15.6167 14.9004 15.6167H16.9004C18.4475 15.6167 19.8064 14.7107 20.9004 13.6167C21.9944 12.5227 22.9004 11.1638 22.9004 9.6167C22.9004 4.46003 18.6987 0.616699 12.9004 0.616699Z" fill="#0056FD"/>
</svg>
