<svg width="25" height="25" viewBox="0 0 25 25" fill="none" xmlns="http://www.w3.org/2000/svg">
<path d="M6.35199 11.5268L9.3259 14.7965L6.35199 16.9763M13.2911 16.9763H18.2476M1.39548 2.80754C1.39548 2.48636 1.18022 1.94474 1.39548 1.71764C1.61073 1.49053 2.08236 1.71764 2.38678 1.71764H9.3259L12.2998 4.98736H22.2128C22.5173 4.98736 22.9889 5.85015 23.2041 6.07726C23.4194 6.30437 23.2041 5.75608 23.2041 6.07726V22.4259C23.2041 22.747 23.4194 23.2887 23.2041 23.5158C22.9889 23.7429 22.5173 23.5158 22.2128 23.5158H2.38678C2.08236 23.5158 1.61073 23.7429 1.39548 23.5158C1.18022 23.2887 1.39548 22.747 1.39548 22.4259V2.80754Z" stroke="#0056FD" stroke-width="1.90728" stroke-linecap="round" stroke-linejoin="round"/>
</svg>
