<svg width="27" height="27" viewBox="0 0 27 27" fill="none" xmlns="http://www.w3.org/2000/svg">
<path d="M23.8806 0.5625C24.6451 0.5625 25.3782 0.866182 25.9188 1.40674C26.4593 1.9473 26.763 2.68045 26.763 3.44491V23.6218C26.763 24.3863 26.4593 25.1194 25.9188 25.66C25.3782 26.2006 24.6451 26.5042 23.8806 26.5042H3.7037C2.93924 26.5042 2.20609 26.2006 1.66553 25.66C1.12497 25.1194 0.821289 24.3863 0.821289 23.6218V3.44491C0.821289 2.68045 1.12497 1.9473 1.66553 1.40674C2.20609 0.866182 2.93924 0.5625 3.7037 0.5625H23.8806ZM23.16 22.9012V15.2628C23.16 14.0167 22.665 12.8217 21.7839 11.9406C20.9028 11.0595 19.7077 10.5645 18.4617 10.5645C17.2366 10.5645 15.8098 11.3139 15.1181 12.438V10.8383H11.0971V22.9012H15.1181V15.7961C15.1181 14.6863 16.0116 13.7784 17.1213 13.7784C17.6565 13.7784 18.1697 13.9909 18.5481 14.3693C18.9265 14.7477 19.139 15.2609 19.139 15.7961V22.9012H23.16ZM6.41317 8.57561C7.05532 8.57561 7.67117 8.32052 8.12524 7.86645C8.57931 7.41238 8.8344 6.79653 8.8344 6.15438C8.8344 4.81406 7.7535 3.71874 6.41317 3.71874C5.7672 3.71874 5.14769 3.97536 4.69092 4.43213C4.23414 4.8889 3.97753 5.50841 3.97753 6.15438C3.97753 7.49471 5.07285 8.57561 6.41317 8.57561ZM8.41645 22.9012V10.8383H4.42431V22.9012H8.41645Z" fill="#FDFDFD"/>
</svg>
