<svg width="30" height="29" viewBox="0 0 30 29" fill="none" xmlns="http://www.w3.org/2000/svg">
<path d="M9.32775 0.121094H21.4339C26.0458 0.121094 29.7929 3.86823 29.7929 8.4801V20.5862C29.7929 22.8032 28.9122 24.9293 27.3446 26.4969C25.777 28.0646 23.6508 28.9452 21.4339 28.9452H9.32775C4.71589 28.9452 0.96875 25.1981 0.96875 20.5862V8.4801C0.96875 6.26315 1.84943 4.13701 3.41705 2.56939C4.98466 1.00177 7.11081 0.121094 9.32775 0.121094ZM9.03951 3.00351C7.66348 3.00351 6.3438 3.55014 5.3708 4.52314C4.39779 5.49614 3.85117 6.81582 3.85117 8.19186V20.8745C3.85117 23.7425 6.17151 26.0628 9.03951 26.0628H21.7221C23.0982 26.0628 24.4179 25.5162 25.3909 24.5432C26.3639 23.5702 26.9105 22.2505 26.9105 20.8745V8.19186C26.9105 5.32385 24.5901 3.00351 21.7221 3.00351H9.03951ZM22.9472 5.16532C23.425 5.16532 23.8832 5.35512 24.221 5.69297C24.5589 6.03082 24.7487 6.48904 24.7487 6.96683C24.7487 7.44462 24.5589 7.90284 24.221 8.24069C23.8832 8.57854 23.425 8.76834 22.9472 8.76834C22.4694 8.76834 22.0112 8.57854 21.6733 8.24069C21.3355 7.90284 21.1457 7.44462 21.1457 6.96683C21.1457 6.48904 21.3355 6.03082 21.6733 5.69297C22.0112 5.35512 22.4694 5.16532 22.9472 5.16532ZM15.3808 7.32713C17.292 7.32713 19.1249 8.08634 20.4763 9.43773C21.8277 10.7891 22.5869 12.622 22.5869 14.5332C22.5869 16.4443 21.8277 18.2772 20.4763 19.6286C19.1249 20.98 17.292 21.7392 15.3808 21.7392C13.4697 21.7392 11.6368 20.98 10.2854 19.6286C8.93399 18.2772 8.17479 16.4443 8.17479 14.5332C8.17479 12.622 8.93399 10.7891 10.2854 9.43773C11.6368 8.08634 13.4697 7.32713 15.3808 7.32713ZM15.3808 10.2095C14.2341 10.2095 13.1344 10.6651 12.3236 11.4759C11.5127 12.2867 11.0572 13.3865 11.0572 14.5332C11.0572 15.6799 11.5127 16.7796 12.3236 17.5904C13.1344 18.4013 14.2341 18.8568 15.3808 18.8568C16.5275 18.8568 17.6273 18.4013 18.4381 17.5904C19.2489 16.7796 19.7044 15.6799 19.7044 14.5332C19.7044 13.3865 19.2489 12.2867 18.4381 11.4759C17.6273 10.6651 16.5275 10.2095 15.3808 10.2095Z" fill="#FDFDFD"/>
</svg>
