<?xml version="1.0" standalone="no"?>
<!DOCTYPE svg PUBLIC "-//W3C//DTD SVG 20010904//EN"
 "http://www.w3.org/TR/2001/REC-SVG-20010904/DTD/svg10.dtd">
<svg version="1.0" xmlns="http://www.w3.org/2000/svg"
 width="500.000000pt" height="500.000000pt" viewBox="0 0 500.000000 500.000000"
 preserveAspectRatio="xMidYMid meet">

<g transform="translate(0.000000,500.000000) scale(0.100000,-0.100000)"
fill="#000000" stroke="none">
<path d="M2385 3230 l-110 -111 -5 68 c-5 65 -6 68 -32 71 -38 4 -48 -25 -48
-136 l0 -86 -90 -92 c-49 -50 -90 -97 -90 -103 0 -28 22 -51 48 -51 22 0 67
40 234 207 l208 208 208 -208 c167 -167 212 -207 234 -207 27 0 48 23 48 51 0
12 -478 499 -490 499 -3 0 -55 -50 -115 -110z"/>
<path d="M2303 2921 l-193 -188 0 -211 0 -212 220 0 220 0 2 183 3 182 100 0
100 0 3 -182 2 -183 65 0 65 0 0 214 0 214 -191 184 c-105 100 -194 184 -197
185 -4 1 -94 -83 -199 -186z m125 -333 l3 -88 -96 0 -95 0 0 83 c0 46 3 87 7
91 4 4 46 5 93 4 l85 -3 3 -87z"/>
<path d="M1223 2189 c-104 -51 -111 -238 -11 -299 47 -28 125 -27 168 3 100
68 92 245 -14 296 -54 26 -90 26 -143 0z m128 -68 c24 -24 29 -38 29 -76 0
-76 -29 -115 -85 -115 -56 0 -85 39 -85 115 0 38 5 52 29 76 18 17 40 29 56
29 16 0 38 -12 56 -29z"/>
<path d="M1950 2034 l0 -166 90 4 c100 5 130 19 164 78 26 44 26 136 0 181
-30 51 -74 69 -171 69 l-83 0 0 -166z m154 102 c41 -17 61 -67 51 -126 -9 -53
-44 -80 -101 -80 l-44 0 0 103 c0 57 3 107 7 110 11 11 51 8 87 -7z"/>
<path d="M2720 2035 l0 -165 68 0 c37 0 83 4 101 10 47 13 89 56 98 99 l6 36
9 -35 c20 -79 54 -110 123 -110 72 0 117 48 117 125 0 77 -45 125 -117 125
-59 0 -113 -40 -116 -85 0 -11 -6 3 -13 32 -26 106 -66 133 -196 133 l-80 0 0
-165z m187 80 c16 -19 23 -39 23 -70 0 -80 -32 -115 -105 -115 l-35 0 0 111 0
112 47 -6 c35 -4 53 -12 70 -32z m257 -67 c34 -48 9 -128 -39 -128 -31 0 -55
35 -55 79 0 64 62 96 94 49z"/>
<path d="M1460 1995 l0 -125 35 0 35 0 0 84 c0 89 12 116 49 116 33 0 41 -22
41 -112 l0 -88 35 0 35 0 0 99 c0 84 -3 102 -21 125 -24 31 -81 36 -117 10
-20 -14 -22 -14 -22 0 0 12 -10 16 -35 16 l-35 0 0 -125z"/>
<path d="M1748 2100 c-36 -28 -51 -72 -45 -127 7 -65 49 -103 113 -103 63 0
114 30 114 66 0 9 -59 3 -65 -6 -9 -14 -68 -13 -83 2 -7 7 -12 20 -12 30 0 16
10 18 85 18 61 0 85 3 85 13 0 35 -24 88 -47 107 -35 27 -111 27 -145 0z m110
-42 c26 -26 13 -38 -38 -38 -34 0 -50 4 -50 13 0 21 22 37 50 37 14 0 31 -5
38 -12z"/>
<path d="M2266 2099 c-35 -27 -34 -49 2 -49 15 0 33 5 39 11 18 18 68 7 68
-15 0 -16 -11 -22 -57 -31 -72 -14 -88 -28 -88 -76 0 -28 6 -42 22 -53 29 -21
87 -20 110 1 17 15 18 15 18 0 0 -13 9 -17 35 -17 l35 0 0 90 c0 99 -10 132
-47 149 -40 18 -107 14 -137 -10z m98 -170 c-21 -23 -52 -21 -68 3 -14 23 1
38 46 47 28 6 34 4 36 -12 2 -10 -4 -27 -14 -38z"/>
<path d="M2450 2111 c0 -5 18 -60 40 -122 45 -125 47 -150 11 -159 -13 -3 -28
-15 -32 -28 -7 -18 -4 -23 15 -28 32 -8 88 18 103 47 15 28 103 277 103 290 0
5 -15 9 -34 9 l-33 0 -23 -85 c-13 -47 -26 -88 -30 -90 -3 -2 -17 36 -30 85
l-23 90 -33 0 c-19 0 -34 -4 -34 -9z"/>
<path d="M3260 1995 l0 -125 30 0 30 0 0 83 c0 97 12 124 53 113 27 -6 27 -7
27 -101 l0 -95 35 0 34 0 3 91 c2 75 6 94 21 103 12 8 22 8 35 0 14 -9 18 -28
20 -103 l3 -91 36 0 35 0 -4 106 c-3 97 -6 108 -27 125 -31 25 -83 25 -106 -1
l-18 -20 -22 20 c-28 26 -79 26 -105 0 l-20 -20 0 20 c0 16 -7 20 -30 20 l-30
0 0 -125z"/>
</g>
</svg>
